<svg xmlns="http://www.w3.org/2000/svg" width="480pt" height="290pt" viewBox="0 0 480 290" version="1.1" xmlns:xlink="http://www.w3.org/1999/xlink">
  <g id="surface2" transform="matrix(1,0,0,1,0,0)">
    <path style="stroke:none;fill-rule:evenodd;fill:rgb(96.862745%,42.352941%,42.352941%);fill-opacity:1" d="M 271 100 C 267.765625 99.199219 264.5 97.832031 261.199219 95.898438 C 257.867188 93.964844 254.832031 91.484375 252.101562 88.449219 C 249.367188 85.382812 247.285156 81.800781 245.851562 77.699219 C 244.417969 73.601562 243.984375 69 244.550781 63.898438 C 245.148438 58.800781 247.101562 53.199219 250.398438 47.101562 C 245.867188 52.035156 242.566406 57.25 240.5 62.75 C 238.433594 68.25 237.382812 73.917969 237.351562 79.75 C 241.683594 84.582031 244.933594 89.417969 247.101562 94.25 C 249.300781 99.117188 250.101562 104.25 249.5 109.648438 C 248.898438 115.015625 246.617188 120.933594 242.648438 127.398438 C 238.648438 133.867188 232.667969 141.117188 224.699219 149.148438 C 216.699219 157.183594 206.398438 166.265625 193.800781 176.398438 C 195 175.800781 197.035156 174.765625 199.898438 173.300781 C 202.765625 171.832031 206.183594 169.949219 210.148438 167.648438 C 214.148438 165.316406 218.449219 162.550781 223.050781 159.351562 C 227.683594 156.148438 232.367188 152.515625 237.101562 148.449219 C 241.867188 144.382812 246.433594 139.867188 250.800781 134.898438 C 255.167969 129.964844 259.101562 124.582031 262.601562 118.75 C 266.101562 112.949219 268.898438 106.699219 271 100 "/>
    <path style="stroke:none;fill-rule:evenodd;fill:rgb(18.039216%,54.901961%,79.215686%);fill-opacity:1" d="M 269.601562 75.949219 C 267.867188 75.984375 266.300781 76.398438 264.898438 77.199219 C 263.535156 78.035156 262.433594 79.132812 261.601562 80.5 C 260.800781 81.898438 260.382812 83.464844 260.351562 85.199219 C 260.382812 86.898438 260.800781 88.449219 261.601562 89.851562 C 262.433594 91.214844 263.535156 92.316406 264.898438 93.148438 C 266.300781 93.984375 267.867188 94.398438 269.601562 94.398438 C 271.300781 94.398438 272.851562 93.984375 274.25 93.148438 C 275.617188 92.316406 276.714844 91.214844 277.550781 89.851562 C 278.382812 88.449219 278.800781 86.898438 278.800781 85.199219 C 278.800781 83.464844 278.382812 81.917969 277.550781 80.550781 C 276.714844 79.148438 275.617188 78.035156 274.25 77.199219 C 272.851562 76.398438 271.300781 75.984375 269.601562 75.949219 M 245.300781 162.949219 C 248.464844 160.484375 251.632812 157.75 254.800781 154.75 C 258 151.75 260.882812 148.566406 263.449219 145.199219 C 266.050781 141.832031 268.066406 138.382812 269.5 134.851562 C 266.734375 134.882812 264.117188 134.933594 261.648438 135 C 259.183594 135.066406 256.566406 135.199219 253.800781 135.398438 C 256.601562 132.265625 259.25 128.949219 261.75 125.449219 C 264.285156 121.984375 266.535156 118.082031 268.5 113.75 C 270.734375 114.617188 273 115.75 275.300781 117.148438 C 277.632812 118.550781 279.765625 120.234375 281.699219 122.199219 C 283.632812 124.167969 285.117188 126.417969 286.148438 128.949219 C 283.117188 135.617188 278.199219 141.867188 271.398438 147.699219 C 264.601562 153.535156 255.898438 158.617188 245.300781 162.949219 "/>
  </g>
  <g id="surface4">
    <text style="fill:rgb(46,140,202)" font-family="Noto Sans" font-size="50" transform="matrix(1,0,0,1,180.95,223.95)" xml:space="preserve"><![CDATA[statia]]></text>
  </g>
</svg>