<?xml version="1.0" encoding="UTF-8" standalone="no"?>
<!-- Created with Inkscape (http://www.inkscape.org/) -->
<svg
   xmlns:svg="http://www.w3.org/2000/svg"
   xmlns="http://www.w3.org/2000/svg"
   version="1.0"
   width="301"
   height="438"
   id="svg5338">
  <defs
     id="defs5340" />
  <g
     transform="translate(-338.07144,-541.93365)"
     id="layer1">
    <rect
       width="216"
       height="360"
       x="384.57144"
       y="581.43365"
       style="fill:#008001;fill-opacity:1;stroke:#000000;stroke-width:1.00000513;stroke-linecap:round;stroke-linejoin:miter;stroke-miterlimit:4;stroke-dasharray:none;stroke-dashoffset:0;stroke-opacity:1"
       id="rect5356" />
    <path
       d="M 600.57144,615.43365 L 384.57144,615.43365"
       style="fill:none;fill-rule:evenodd;stroke:#ffffff;stroke-width:0.99999595;stroke-linecap:butt;stroke-linejoin:miter;stroke-miterlimit:4;stroke-dasharray:none;stroke-opacity:1"
       id="path5370" />
    <path
       d="M 600.57055,628.43365 L 384.57144,628.43365"
       style="fill:none;fill-rule:evenodd;stroke:#ffffff;stroke-width:0.99999386;stroke-linecap:butt;stroke-linejoin:miter;stroke-miterlimit:4;stroke-dasharray:none;stroke-opacity:1"
       id="path5372" />
    <path
       d="M 600.57144,628.43365 L 384.57144,628.43365"
       style="fill:none;fill-rule:evenodd;stroke:#ffffff;stroke-width:0.99999595;stroke-linecap:butt;stroke-linejoin:miter;stroke-miterlimit:4;stroke-dasharray:none;stroke-opacity:1"
       id="path5376" />
    <path
       d="M 600.57144,707.43365 L 384.57144,707.43365"
       style="fill:none;fill-rule:evenodd;stroke:#ffffff;stroke-width:0.99999595;stroke-linecap:butt;stroke-linejoin:miter;stroke-miterlimit:4;stroke-dasharray:none;stroke-opacity:1"
       id="path5378" />
    <path
       d="M 600.57144,752.43365 L 384.57144,752.43365"
       style="fill:none;fill-rule:evenodd;stroke:#ffffff;stroke-width:0.99999595;stroke-linecap:butt;stroke-linejoin:miter;stroke-miterlimit:4;stroke-dasharray:none;stroke-opacity:1"
       id="path5380" />
    <path
       d="M 600.57144,770.43365 L 384.57144,770.43365"
       style="fill:none;fill-rule:evenodd;stroke:#ffffff;stroke-width:0.99999595;stroke-linecap:butt;stroke-linejoin:miter;stroke-miterlimit:4;stroke-dasharray:none;stroke-opacity:1"
       id="path5382" />
    <path
       d="M 600.57144,815.43365 L 384.57144,815.43365"
       style="fill:none;fill-rule:evenodd;stroke:#ffffff;stroke-width:0.99999595;stroke-linecap:butt;stroke-linejoin:miter;stroke-miterlimit:4;stroke-dasharray:none;stroke-opacity:1"
       id="path5384" />
    <path
       d="M 600.57144,893.42606 L 384.57144,893.42606"
       style="fill:none;fill-rule:evenodd;stroke:#ffffff;stroke-width:0.99999595;stroke-linecap:butt;stroke-linejoin:miter;stroke-miterlimit:4;stroke-dasharray:none;stroke-opacity:1"
       id="path5386" />
    <path
       d="M 600.57144,906.43365 L 384.57144,906.43365"
       style="fill:none;fill-rule:evenodd;stroke:#ffffff;stroke-width:0.99999595;stroke-linecap:butt;stroke-linejoin:miter;stroke-miterlimit:4;stroke-dasharray:none;stroke-opacity:1"
       id="path5388" />
    <path
       d="M 469.52457,580.93365 L 469.52457,581.43365 L 469.52457,595.43365 L 469.52457,595.93365 L 470.52457,595.93365 L 506.52457,595.93365 L 507.52457,595.93365 L 507.61832,595.93365 L 507.61832,594.93365 L 507.52457,594.93365 L 507.52457,581.43365 L 507.52457,580.93365 L 506.52457,580.93365 L 506.52457,581.43365 L 506.52457,594.93365 L 470.52457,594.93365 L 470.52457,581.43365 L 470.52457,580.93365 L 469.52457,580.93365 z "
       style="fill:#ffffff;fill-opacity:1;fill-rule:evenodd;stroke:none;stroke-width:0.99952465;stroke-linecap:square;stroke-linejoin:miter;stroke-miterlimit:4;stroke-dasharray:none;stroke-opacity:1"
       id="path5390" />
    <g
       transform="translate(-3,0)"
       id="g5435">
      <path
         d="M 464.57144,941.43365 L 464.57144,907.43365"
         style="fill:none;fill-rule:evenodd;stroke:#ffffff;stroke-width:1px;stroke-linecap:square;stroke-linejoin:miter;stroke-opacity:1"
         id="path5415" />
      <path
         d="M 518.57144,941.43365 L 518.57144,907.43365"
         style="fill:none;fill-rule:evenodd;stroke:#ffffff;stroke-width:1px;stroke-linecap:square;stroke-linejoin:miter;stroke-opacity:1"
         id="path5417" />
    </g>
    <path
       d="M 469.52457,941.93365 L 469.52457,941.43365 L 469.52457,927.43365 L 469.52457,926.93365 L 470.52457,926.93365 L 506.52457,926.93365 L 507.52457,926.93365 L 507.61832,926.93365 L 507.61832,927.93365 L 507.52457,927.93365 L 507.52457,941.43365 L 507.52457,941.93365 L 506.52457,941.93365 L 506.52457,941.43365 L 506.52457,927.93365 L 470.52457,927.93365 L 470.52457,941.43365 L 470.52457,941.93365 L 469.52457,941.93365 z "
       style="fill:#ffffff;fill-opacity:1;fill-rule:evenodd;stroke:none;stroke-width:0.99952465;stroke-linecap:square;stroke-linejoin:miter;stroke-miterlimit:4;stroke-dasharray:none;stroke-opacity:1"
       id="path5419" />
    <g
       transform="translate(-0.99983,0)"
       id="g5431">
      <path
         d="M 462.57127,581.43313 L 462.57127,614.43382"
         style="fill:none;fill-rule:evenodd;stroke:#ffffff;stroke-width:0.99966437px;stroke-linecap:square;stroke-linejoin:miter;stroke-opacity:1"
         id="path5366" />
      <path
         d="M 516.57127,581.43313 L 516.57127,614.43382"
         style="fill:none;fill-rule:evenodd;stroke:#ffffff;stroke-width:0.99966437px;stroke-linecap:square;stroke-linejoin:miter;stroke-opacity:1"
         id="path5423" />
    </g>
    <path
       d="M 461.07803,628.43365 C 461.07803,634.32731 468.2801,648.8911 488.34903,648.8911 C 508.41674,648.8911 516.02227,634.62621 516.06485,628.49028"
       style="fill:none;fill-rule:evenodd;stroke:#ffffff;stroke-width:1px;stroke-linecap:butt;stroke-linejoin:miter;stroke-opacity:1"
       id="path5425" />
    <path
       d="M 461.07803,893.43365 C 461.07803,887.53999 468.2801,872.9762 488.34903,872.9762 C 508.41674,872.9762 516.06485,887.23578 516.06485,893.37702"
       style="fill:none;fill-rule:evenodd;stroke:#ffffff;stroke-width:1px;stroke-linecap:butt;stroke-linejoin:miter;stroke-opacity:1"
       id="path5429" />
    <g
       transform="translate(-2.85644,0)"
       id="g5548">
      <path
         d="M 135,400 L 135,400.5 L 135,402 L 135,403 L 135,406 L 135,407 L 135,410 L 135,411 L 135,414 L 135,415 L 135,417.5 L 135,418 L 135.5,418 L 136,418 L 171,418 L 171.0625,418 L 171.5625,418 L 172,418 L 172,417.5 L 172,400.5 L 172,400 L 171,400 L 171,400.5 L 171,402 L 168,402 L 168,400.5 L 168,400 L 167,400 L 167,400.5 L 167,402 L 164,402 L 164,400.5 L 164,400 L 163,400 L 163,400.5 L 163,402 L 160,402 L 160,400.5 L 160,400 L 159,400 L 159,400.5 L 159,402 L 156,402 L 156,400.5 L 156,400 L 155,400 L 155,400.5 L 155,402 L 152,402 L 152,400.5 L 152,400 L 151,400 L 151,400.5 L 151,402 L 148,402 L 148,400.5 L 148,400 L 147,400 L 147,400.5 L 147,402 L 144,402 L 144,400.5 L 144,400 L 143,400 L 143,400.5 L 143,402 L 140,402 L 140,400.5 L 140,400 L 139,400 L 139,400.5 L 139,402 L 136,402 L 136,400.5 L 136,400 L 135,400 z M 136,403 L 139,403 L 139,406 L 136,406 L 136,403 z M 140,403 L 143,403 L 143,406 L 140,406 L 140,403 z M 144,403 L 147,403 L 147,406 L 144,406 L 144,403 z M 148,403 L 151,403 L 151,406 L 148,406 L 148,403 z M 152,403 L 155,403 L 155,406 L 152,406 L 152,403 z M 156,403 L 159,403 L 159,406 L 156,406 L 156,403 z M 160,403 L 163,403 L 163,406 L 160,406 L 160,403 z M 164,403 L 167,403 L 167,406 L 164,406 L 164,403 z M 168,403 L 171,403 L 171,406 L 168,406 L 168,403 z M 136,407 L 139,407 L 139,410 L 136,410 L 136,407 z M 140,407 L 143,407 L 143,410 L 140,410 L 140,407 z M 144,407 L 147,407 L 147,410 L 144,410 L 144,407 z M 148,407 L 151,407 L 151,410 L 148,410 L 148,407 z M 152,407 L 155,407 L 155,410 L 152,410 L 152,407 z M 156,407 L 159,407 L 159,410 L 156,410 L 156,407 z M 160,407 L 163,407 L 163,410 L 160,410 L 160,407 z M 164,407 L 167,407 L 167,410 L 164,410 L 164,407 z M 168,407 L 171,407 L 171,410 L 168,410 L 168,407 z M 136,411 L 139,411 L 139,414 L 136,414 L 136,411 z M 140,411 L 143,411 L 143,414 L 140,414 L 140,411 z M 144,411 L 147,411 L 147,414 L 144,414 L 144,411 z M 148,411 L 151,411 L 151,414 L 148,414 L 148,411 z M 152,411 L 155,411 L 155,414 L 152,414 L 152,411 z M 156,411 L 159,411 L 159,414 L 156,414 L 156,411 z M 160,411 L 163,411 L 163,414 L 160,414 L 160,411 z M 164,411 L 167,411 L 167,414 L 164,414 L 164,411 z M 168,411 L 171,411 L 171,414 L 168,414 L 168,411 z M 136,415 L 139,415 L 139,417 L 136,417 L 136,415 z M 140,415 L 143,415 L 143,417 L 140,417 L 140,415 z M 144,415 L 147,415 L 147,417 L 144,417 L 144,415 z M 148,415 L 151,415 L 151,417 L 148,417 L 148,415 z M 152,415 L 155,415 L 155,417 L 152,417 L 152,415 z M 156,415 L 159,415 L 159,417 L 156,417 L 156,415 z M 160,415 L 163,415 L 163,417 L 160,417 L 160,415 z M 164,415 L 167,415 L 167,417 L 164,417 L 164,415 z M 168,415 L 171,415 L 171,417 L 168,417 L 168,415 z "
         transform="translate(338.07144,541.93365)"
         style="fill:#000000;fill-opacity:1;fill-rule:evenodd;stroke:none;stroke-width:0.99978727px;stroke-linecap:square;stroke-linejoin:miter;stroke-opacity:1"
         id="path5443" />
      <g
         id="g5544">
        <path
           d="M 135.21288,434.29803 L 135.21288,416.29803"
           transform="translate(338.07144,541.93365)"
           style="fill:none;fill-rule:evenodd;stroke:#000000;stroke-width:1px;stroke-linecap:butt;stroke-linejoin:miter;stroke-opacity:1"
           id="path5540" />
        <path
           d="M 509.17549,976.23168 L 509.17549,958.23168"
           style="fill:none;fill-rule:evenodd;stroke:#000000;stroke-width:1px;stroke-linecap:butt;stroke-linejoin:miter;stroke-opacity:1"
           id="path5542" />
      </g>
    </g>
    <g
       transform="matrix(1,0,0,-1,-2.85644,1522.8673)"
       id="g5563">
      <path
         d="M 135,400 L 135,400.5 L 135,402 L 135,403 L 135,406 L 135,407 L 135,410 L 135,411 L 135,414 L 135,415 L 135,417.5 L 135,418 L 135.5,418 L 136,418 L 171,418 L 171.0625,418 L 171.5625,418 L 172,418 L 172,417.5 L 172,400.5 L 172,400 L 171,400 L 171,400.5 L 171,402 L 168,402 L 168,400.5 L 168,400 L 167,400 L 167,400.5 L 167,402 L 164,402 L 164,400.5 L 164,400 L 163,400 L 163,400.5 L 163,402 L 160,402 L 160,400.5 L 160,400 L 159,400 L 159,400.5 L 159,402 L 156,402 L 156,400.5 L 156,400 L 155,400 L 155,400.5 L 155,402 L 152,402 L 152,400.5 L 152,400 L 151,400 L 151,400.5 L 151,402 L 148,402 L 148,400.5 L 148,400 L 147,400 L 147,400.5 L 147,402 L 144,402 L 144,400.5 L 144,400 L 143,400 L 143,400.5 L 143,402 L 140,402 L 140,400.5 L 140,400 L 139,400 L 139,400.5 L 139,402 L 136,402 L 136,400.5 L 136,400 L 135,400 z M 136,403 L 139,403 L 139,406 L 136,406 L 136,403 z M 140,403 L 143,403 L 143,406 L 140,406 L 140,403 z M 144,403 L 147,403 L 147,406 L 144,406 L 144,403 z M 148,403 L 151,403 L 151,406 L 148,406 L 148,403 z M 152,403 L 155,403 L 155,406 L 152,406 L 152,403 z M 156,403 L 159,403 L 159,406 L 156,406 L 156,403 z M 160,403 L 163,403 L 163,406 L 160,406 L 160,403 z M 164,403 L 167,403 L 167,406 L 164,406 L 164,403 z M 168,403 L 171,403 L 171,406 L 168,406 L 168,403 z M 136,407 L 139,407 L 139,410 L 136,410 L 136,407 z M 140,407 L 143,407 L 143,410 L 140,410 L 140,407 z M 144,407 L 147,407 L 147,410 L 144,410 L 144,407 z M 148,407 L 151,407 L 151,410 L 148,410 L 148,407 z M 152,407 L 155,407 L 155,410 L 152,410 L 152,407 z M 156,407 L 159,407 L 159,410 L 156,410 L 156,407 z M 160,407 L 163,407 L 163,410 L 160,410 L 160,407 z M 164,407 L 167,407 L 167,410 L 164,410 L 164,407 z M 168,407 L 171,407 L 171,410 L 168,410 L 168,407 z M 136,411 L 139,411 L 139,414 L 136,414 L 136,411 z M 140,411 L 143,411 L 143,414 L 140,414 L 140,411 z M 144,411 L 147,411 L 147,414 L 144,414 L 144,411 z M 148,411 L 151,411 L 151,414 L 148,414 L 148,411 z M 152,411 L 155,411 L 155,414 L 152,414 L 152,411 z M 156,411 L 159,411 L 159,414 L 156,414 L 156,411 z M 160,411 L 163,411 L 163,414 L 160,414 L 160,411 z M 164,411 L 167,411 L 167,414 L 164,414 L 164,411 z M 168,411 L 171,411 L 171,414 L 168,414 L 168,411 z M 136,415 L 139,415 L 139,417 L 136,417 L 136,415 z M 140,415 L 143,415 L 143,417 L 140,417 L 140,415 z M 144,415 L 147,415 L 147,417 L 144,417 L 144,415 z M 148,415 L 151,415 L 151,417 L 148,417 L 148,415 z M 152,415 L 155,415 L 155,417 L 152,417 L 152,415 z M 156,415 L 159,415 L 159,417 L 156,417 L 156,415 z M 160,415 L 163,415 L 163,417 L 160,417 L 160,415 z M 164,415 L 167,415 L 167,417 L 164,417 L 164,415 z M 168,415 L 171,415 L 171,417 L 168,417 L 168,415 z "
         transform="translate(338.07144,541.93365)"
         style="fill:#000000;fill-opacity:1;fill-rule:evenodd;stroke:none;stroke-width:0.99978727px;stroke-linecap:square;stroke-linejoin:miter;stroke-opacity:1"
         id="path5565" />
      <g
         id="g5567">
        <path
           d="M 135.21288,434.29803 L 135.21288,416.29803"
           transform="translate(338.07144,541.93365)"
           style="fill:none;fill-rule:evenodd;stroke:#000000;stroke-width:1px;stroke-linecap:butt;stroke-linejoin:miter;stroke-opacity:1"
           id="path5569" />
        <path
           d="M 509.17549,976.23168 L 509.17549,958.23168"
           style="fill:none;fill-rule:evenodd;stroke:#000000;stroke-width:1px;stroke-linecap:butt;stroke-linejoin:miter;stroke-opacity:1"
           id="path5571" />
      </g>
    </g>
  </g>
</svg>
